<?xml version="1.0" standalone="no"?>
<!DOCTYPE svg PUBLIC "-//W3C//DTD SVG 20010904//EN"
 "http://www.w3.org/TR/2001/REC-SVG-20010904/DTD/svg10.dtd">
<svg version="1.0" xmlns="http://www.w3.org/2000/svg"
 width="534.000000pt" height="534.000000pt" viewBox="0 0 534.000000 534.000000"
 preserveAspectRatio="xMidYMid meet">
<metadata>
Created by potrace 1.14, written by Peter Selinger 2001-2017
</metadata>
<g transform="translate(0.000000,534.000000) scale(0.100000,-0.100000)"
fill="#000000" stroke="none">
<path d="M1415 3878 c-16 -35 -29 -65 -30 -68 -5 -15 -29 -71 -55 -128 -17
-35 -30 -68 -30 -73 0 -5 -4 -9 -8 -9 -5 0 -9 -6 -9 -12 0 -7 -11 -38 -25 -68
-14 -30 -40 -89 -58 -130 -18 -41 -41 -94 -52 -118 -39 -87 -142 -321 -195
-442 -30 -69 -65 -147 -78 -175 -47 -99 -86 -199 -81 -210 2 -6 102 -167 222
-356 119 -189 224 -356 233 -371 9 -14 45 -72 81 -128 36 -55 74 -116 85 -135
11 -19 29 -46 41 -62 l20 -27 66 69 c36 39 95 100 129 136 97 100 400 416 464
484 238 250 466 485 470 485 5 0 181 -183 694 -719 109 -114 290 -303 358
-373 41 -43 79 -75 84 -72 5 3 21 26 36 52 15 26 30 49 33 52 3 3 41 61 84
130 79 128 270 432 319 507 15 24 27 47 27 53 0 5 4 10 9 10 5 0 13 9 16 20 3
11 12 26 18 32 7 7 33 46 57 86 25 40 53 86 64 103 20 32 19 38 -30 144 -12
28 -66 149 -119 270 -53 121 -102 234 -110 250 -7 17 -25 57 -40 90 -15 33
-33 74 -40 90 -7 17 -22 51 -34 77 -11 26 -21 50 -21 53 0 2 -15 36 -34 75
-19 39 -35 74 -36 78 -2 7 -23 56 -72 162 -16 36 -41 92 -54 125 -41 100 -46
107 -69 100 -11 -3 -28 -8 -38 -10 -9 -2 -23 -7 -30 -12 -6 -4 -17 -8 -24 -9
-13 -2 -79 -22 -103 -31 -8 -3 -19 -7 -25 -9 -5 -1 -75 -23 -154 -49 -79 -26
-149 -48 -155 -50 -6 -1 -18 -5 -26 -8 -39 -15 -156 -52 -165 -52 -5 0 -14 -3
-20 -6 -5 -4 -35 -14 -65 -23 -30 -10 -62 -20 -70 -23 -8 -3 -19 -7 -25 -8 -5
-2 -60 -19 -120 -39 -61 -20 -115 -36 -120 -36 -6 0 -73 21 -150 46 -77 25
-144 46 -150 48 -5 1 -23 7 -40 13 -28 11 -324 106 -335 108 -3 0 -27 8 -55
18 -27 9 -52 17 -55 17 -3 0 -86 27 -185 60 -98 33 -182 60 -186 60 -3 0 -19
-28 -34 -62z m290 -480 c33 -31 80 -75 105 -98 25 -23 115 -108 200 -190 85
-81 189 -179 230 -218 41 -38 104 -98 140 -132 l65 -62 -76 -71 c-41 -40 -124
-117 -184 -172 -59 -55 -120 -111 -135 -125 -75 -71 -267 -249 -296 -275 -40
-37 -232 -215 -250 -233 -10 -10 -18 -4 -41 30 -16 24 -49 72 -74 106 -24 35
-48 71 -54 80 -5 10 -12 19 -15 22 -3 3 -22 30 -42 60 -20 30 -52 78 -72 105
-20 28 -40 57 -46 65 -5 8 -32 47 -58 85 -76 109 -75 108 -53 157 11 24 65
147 121 273 56 127 113 253 126 282 13 28 24 54 24 57 0 3 16 40 35 82 19 41
35 77 35 79 0 2 15 37 34 77 19 40 46 101 61 136 l28 62 66 -62 c36 -35 93
-89 126 -120z m300 116 c33 -19 83 -46 110 -60 28 -14 73 -37 100 -52 121 -66
244 -132 298 -160 31 -16 64 -35 71 -41 15 -12 95 27 371 179 28 15 93 50 145
78 123 64 172 91 189 106 39 30 -13 -29 -140 -158 -558 -572 -548 -562 -563
-543 -12 15 -276 289 -611 632 -22 23 -47 50 -55 60 -14 17 -14 17 5 6 11 -6
47 -28 80 -47z m1705 46 c0 -6 18 -49 40 -96 22 -47 40 -89 40 -93 0 -4 13
-34 29 -67 15 -32 49 -108 75 -169 26 -60 59 -135 73 -165 14 -30 38 -84 53
-120 15 -36 36 -83 46 -105 10 -22 17 -43 16 -47 -1 -5 3 -8 8 -8 5 0 9 -3 8
-7 0 -5 6 -25 16 -46 9 -21 28 -63 41 -93 14 -31 22 -61 19 -68 -10 -18 -118
-180 -124 -186 -3 -3 -34 -48 -70 -100 -35 -52 -66 -97 -69 -100 -3 -3 -10
-12 -16 -21 -5 -9 -28 -42 -50 -74 -22 -32 -51 -74 -64 -94 -13 -20 -28 -37
-33 -39 -4 -2 -8 -9 -8 -17 0 -7 -6 -18 -13 -24 -10 -8 -18 -5 -34 12 -11 12
-64 63 -118 112 -54 50 -113 104 -131 120 -47 44 -244 229 -280 261 -49 45
-232 215 -277 257 -23 21 -55 51 -72 66 -51 45 -51 49 2 99 147 139 336 317
393 372 36 34 116 109 177 167 62 58 154 145 205 194 87 83 118 104 118 79z"/>
<path d="M1509 3065 c0 -99 -3 -326 -5 -505 -5 -324 -5 -324 15 -306 11 10 44
40 73 67 29 27 56 49 60 49 4 0 13 6 20 13 7 7 69 58 138 112 69 55 127 102
130 105 3 3 28 23 55 44 28 22 54 43 60 48 6 6 -34 51 -105 119 -63 61 -188
183 -277 272 l-163 161 -1 -179z"/>
<path d="M3670 3197 c-20 -18 -45 -45 -58 -61 -22 -28 -22 -31 -22 -401 l0
-372 56 -51 c31 -29 59 -52 63 -52 6 0 4 961 -2 967 -1 1 -18 -13 -37 -30z"/>
<path d="M3395 2931 l-60 -60 -1 -153 -1 -153 32 -30 c17 -16 45 -40 61 -53
l29 -23 3 130 c1 71 1 191 0 266 l-3 136 -60 -60z"/>
</g>
</svg>
